{"title":"Game.Of.Thrones.S06.COMPLETE.720p.HDTV.x264-MULTiGRPS","uid":15208343,"size":12480682558,"categoryP":"video","categoryS":"hd___tv_shows","magnet":"?xt=urn:btih:44451b504e59dcbc7f720221a5c443387a07d011&amp;dn=Game.Of.Thrones.S06.COMPLETE.720p.HDTV.x264-MULTiGRPS&amp;tr=udp%3A%2F%2Ftracker.leechers-paradise.org%3A6969&amp;tr=udp%3A%2F%2Fzer0day.ch%3A1337&amp;tr=udp%3A%2F%2Fopen.demonii.com%3A1337&amp;tr=udp%3A%2F%2Ftracker.coppersurfer.tk%3A6969&amp;tr=udp%3A%2F%2Fexodus.desync.com%3A6969","seeders":8,"leechers":1,"uploader":"LeRalouf","files":30,"time":1467647155,"description":"Game of Thrones season 6 720p HDTV x264-MULTiGRPS, COMPLETE\r\n\r\n\r\nGeneral\r\nFormat : Matroska\r\nFormat version : Version 4 / Version 2\r\nFile size : 1.27 GiB\r\nDuration : 49mn 55s\r\nOverall bit rate : 3 645 Kbps\r\nEncoded date : UTC 2016-04-25 01:08:04\r\nWriting application : FastLE v2.5.0 - AVS\r\nWriting library : libx264 + libebml + libmatroska + libfastrar\r\n\r\nVideo\r\nID : 1\r\nFormat : AVC\r\nFormat/Info : Advanced Video Codec\r\nFormat profile :   \r\nFormat settings, CABAC : Yes\r\nFormat settings, ReFrames : 5 frames\r\nCodec ID : V_MPEG4/ISO/AVC\r\nDuration : 49mn 55s\r\nBit rate : 3 189 Kbps\r\nWidth : 1 280 pixels\r\nHeight : 718 pixels\r\nDisplay aspect ratio : 16:9\r\nFrame rate mode : Constant\r\nFrame rate : 23.976 fps\r\nColor space : YUV\r\nChroma subsampling : 4:2:0\r\nBit depth : 8 bits\r\nScan type : Progressive\r\nBits/(Pixel*Frame) : 0.145\r\nStream size : 1.11 GiB (87%)\r\nWriting library : x264 core 148 r2665 a01e339\r\nEncoding settings : cabac=1 / ref=5 / deblock=1:0:0 / analyse=0x3:0x113 / me=umh / subme=8 / psy=1 / psy_rd=1.00:0.00 / mixed_ref=1 / me_range=16 / chroma_me=1 / trellis=1 / 8x8dct=1 / cqm=0 / deadzone=21,11 / fast_pskip=1 / chroma_qp_offset=-2 / threads=22 / lookahead_threads=3 / sliced_threads=0 / nr=0 / decimate=1 / interlaced=0 / bluray_compat=0 / constrained_intra=0 / bframes=3 / b_pyramid=2 / b_adapt=2 / b_bias=0 / direct=3 / weightb=1 / open_gop=0 / weightp=2 / keyint=250 / keyint_min=23 / scenecut=40 / intra_refresh=0 / rc_lookahead=50 / rc=crf / mbtree=1 / crf=18.0 / qcomp=0.60 / qpmin=0 / qpmax=69 / qpstep=4 / ip_ratio=1.40 / aq=1:1.00\r\nDefault : Yes\r\nForced : No\r\nMatrix coefficients : BT.709\r\n\r\nAudio\r\nID : 2\r\nFormat : AC-3\r\nFormat/Info : Audio Coding 3\r\nMode extension : CM (complete main)\r\nFormat settings, Endianness : Big\r\nCodec ID : A_AC3\r\nDuration : 49mn 55s\r\nBit rate mode : Constant\r\nBit rate : 384 Kbps\r\nChannel(s) : 6 channels\r\nChannel positions : Front: L C R, Side: L R, LFE\r\nSampling rate : 48.0 KHz\r\nBit depth : 16 bits\r\nCompression mode : Lossy\r\nStream size : 137 MiB (11%)\r\nDefault : Yes\r\nForced : No\r\n\r\n\r\n\r\nThe 6th season complete, 720p.\r\nEnglish and french subtitles included, .srt","torrent":{"xt":"urn:btih:44451b504e59dcbc7f720221a5c443387a07d011","amp;dn":"Game.Of.Thrones.S06.COMPLETE.720p.HDTV.x264-MULTiGRPS","amp;tr":["udp%3A%2F%2Ftracker.leechers-paradise.org%3A6969","udp%3A%2F%2Fzer0day.ch%3A1337","udp%3A%2F%2Fopen.demonii.com%3A1337","udp%3A%2F%2Ftracker.coppersurfer.tk%3A6969","udp%3A%2F%2Fexodus.desync.com%3A6969"],"infoHash":"44451b504e59dcbc7f720221a5c443387a07d011","infoHashBuffer":{"type":"Buffer","data":[68,69,27,80,78,89,220,188,127,114,2,33,165,196,67,56,122,7,208,17]},"announce":[],"urlList":[]}}